<svg width="1920" height="1158" viewBox="0 0 1920 1158" fill="none" xmlns="http://www.w3.org/2000/svg">
<mask id="mask0_23_28368" style="mask-type:alpha" maskUnits="userSpaceOnUse" x="0" y="0" width="1920" height="1158">
<rect width="1920" height="1158" fill="#C4C4C4"/>
</mask>
<g mask="url(#mask0_23_28368)">
<g opacity="0.2">
<path opacity="0.0244" d="M79.588 1165.37C79.465 1165.98 233.831 360.653 736.113 456.746C1245.65 554.254 1357.7 4.28099 1606.16 7.57332C1827.43 10.5272 1980.57 145.082 1980.57 145.082" stroke="#E3AA4A" stroke-miterlimit="10" stroke-linecap="round"/>
<path opacity="0.0488" d="M74.9163 1152.41C74.6704 1153.64 241.022 353.576 735.621 460.008C1245 569.67 1360.71 10.2504 1608.93 15.1428C1830.01 19.512 1981.8 155.421 1981.8 155.421" stroke="#E0A74C" stroke-miterlimit="10" stroke-linecap="round"/>
<path opacity="0.0732" d="M70.2154 1139.49C69.8466 1141.34 248.245 346.776 735.069 463.331C1244.54 585.239 1363.72 16.2503 1611.66 22.7119C1832.53 28.4965 1983 165.759 1983 165.759" stroke="#DCA54F" stroke-miterlimit="10" stroke-linecap="round"/>
<path opacity="0.0976" d="M65.5127 1126.54C65.021 1129 255.528 340.222 734.546 466.592C1244.2 601.024 1366.73 22.2196 1614.43 30.2812C1835.12 37.4813 1984.23 176.129 1984.23 176.129" stroke="#D8A252" stroke-miterlimit="10" stroke-linecap="round"/>
<path opacity="0.122" d="M60.8412 1113.58C60.2266 1116.66 262.903 333.945 734.054 469.854C1244.05 616.962 1369.74 28.2195 1617.16 37.8504C1837.64 46.4658 1985.39 186.467 1985.39 186.467" stroke="#D59F55" stroke-miterlimit="10" stroke-linecap="round"/>
<path opacity="0.1463" d="M56.1386 1100.63C55.401 1104.32 270.309 327.945 733.5 473.115C1243.96 633.117 1372.75 34.1889 1619.9 45.4198C1840.19 55.4814 1986.59 196.806 1986.59 196.806" stroke="#D19C57" stroke-miterlimit="10" stroke-linecap="round"/>
<path opacity="0.1707" d="M51.4673 1087.67C50.6068 1091.98 277.777 322.191 733.008 476.377C1244.02 649.486 1375.8 40.189 1622.67 52.9891C1842.74 64.4661 1987.82 207.175 1987.82 207.175" stroke="#CD995A" stroke-miterlimit="10" stroke-linecap="round"/>
<path opacity="0.1951" d="M46.7667 1074.72C45.7833 1079.64 285.215 316.745 732.487 479.669C1244.14 666.04 1378.81 46.1582 1625.4 60.5275C1845.29 73.42 1989.02 217.483 1989.02 217.483" stroke="#CA965D" stroke-miterlimit="10" stroke-linecap="round"/>
<path opacity="0.2195" d="M42.0954 1061.77C40.9891 1067.3 292.714 311.545 731.965 482.931C1244.33 682.84 1381.82 52.1584 1628.17 68.1277C1847.84 82.4355 1990.22 227.852 1990.22 227.852" stroke="#C6945F" stroke-miterlimit="10" stroke-linecap="round"/>
<path opacity="0.2439" d="M37.3929 1048.81C36.1637 1054.97 300.15 306.622 731.441 486.192C1244.57 699.856 1384.83 58.1275 1630.9 75.6661C1850.39 91.3893 1991.42 238.19 1991.42 238.19" stroke="#C29162" stroke-miterlimit="10" stroke-linecap="round"/>
<path opacity="0.2683" d="M32.6905 1035.86C31.3383 1042.63 307.587 301.945 730.919 489.454C1244.82 717.087 1387.84 64.097 1633.67 83.2356C1852.94 100.374 1992.65 248.529 1992.65 248.529" stroke="#BF8E65" stroke-miterlimit="10" stroke-linecap="round"/>
<path opacity="0.2927" d="M28.0193 1022.9C26.5442 1030.29 314.994 297.514 730.427 492.747C1245.09 734.595 1390.85 70.0972 1636.43 90.8358C1855.52 109.39 1993.88 258.929 1993.88 258.929" stroke="#BB8B67" stroke-miterlimit="10" stroke-linecap="round"/>
<path opacity="0.3171" d="M23.3169 1009.95C21.7188 1017.98 322.307 293.329 729.873 496.008C1245.31 752.318 1393.87 76.0663 1639.17 98.3741C1858.04 118.374 1995.04 269.237 1995.04 269.237" stroke="#B7886A" stroke-miterlimit="10" stroke-linecap="round"/>
<path opacity="0.3415" d="M18.6457 996.996C16.9248 1005.64 329.622 289.391 729.382 499.269C1245.52 770.256 1396.88 82.066 1641.9 105.943C1860.59 127.359 1996.24 279.575 1996.24 279.575" stroke="#B4856D" stroke-miterlimit="10" stroke-linecap="round"/>
<path opacity="0.3659" d="M13.9434 984.042C12.0994 993.304 336.843 285.668 728.859 502.531C1245.68 788.441 1399.89 88.0355 1644.67 113.482C1863.14 136.313 1997.47 289.914 1997.47 289.914" stroke="#B08370" stroke-miterlimit="10" stroke-linecap="round"/>
<path opacity="0.3902" d="M9.2742 971.089C7.30736 980.966 344.006 282.13 728.339 505.793C1245.71 806.903 1402.9 94.0358 1647.41 121.082C1865.69 145.328 1998.67 300.284 1998.67 300.284" stroke="#AC8072" stroke-miterlimit="10" stroke-linecap="round"/>
<path opacity="0.4146" d="M4.57185 958.134C2.48208 968.627 351.043 278.806 727.816 509.085C1245.68 825.58 1405.91 100.005 1650.14 128.651C1868.21 154.313 1999.84 310.622 1999.84 310.622" stroke="#A97D75" stroke-miterlimit="10" stroke-linecap="round"/>
<path opacity="0.439" d="M-0.130486 945.181C-2.34318 956.288 357.988 275.668 727.293 512.347C1245.52 844.472 1408.93 106.005 1652.91 136.221C1870.8 163.298 2001.07 320.991 2001.07 320.991" stroke="#A57A78" stroke-miterlimit="10" stroke-linecap="round"/>
<path opacity="0.4634" d="M-4.80156 932.227C-7.13718 943.95 364.872 272.683 726.801 515.608C1245.25 863.611 1411.97 111.974 1655.67 143.759C1873.35 172.251 2002.3 331.299 2002.3 331.299" stroke="#A1777A" stroke-miterlimit="10" stroke-linecap="round"/>
<path opacity="0.4878" d="M-9.50387 919.273C-11.9624 931.611 371.602 269.852 726.248 518.87C1244.79 882.965 1414.95 117.944 1658.38 151.328C1875.87 181.267 2003.46 341.638 2003.46 341.638" stroke="#9E747D" stroke-miterlimit="10" stroke-linecap="round"/>
<path opacity="0.5122" d="M-14.1752 906.319C-16.726 919.273 378.271 267.175 725.756 522.162C1244.17 902.565 1417.99 123.944 1661.14 158.898C1878.42 190.252 2004.69 352.007 2004.69 352.007" stroke="#9A7280" stroke-miterlimit="10" stroke-linecap="round"/>
<path opacity="0.5366" d="M-18.8775 893.396C-21.5512 906.965 384.786 264.652 725.233 525.454C1243.37 922.38 1421 129.943 1663.91 166.498C1881 199.267 2005.89 362.376 2005.89 362.376" stroke="#976F83" stroke-miterlimit="10" stroke-linecap="round"/>
<path opacity="0.561" d="M-23.5798 880.442C-26.3764 894.626 391.178 262.221 724.68 528.716C1242.36 942.35 1424.01 135.913 1666.64 174.036C1883.52 208.221 2007.09 372.684 2007.09 372.684" stroke="#936C85" stroke-miterlimit="10" stroke-linecap="round"/>
<path opacity="0.5854" d="M-28.2508 867.488C-31.1703 882.288 397.509 259.883 724.188 531.978C1241.16 962.535 1427.03 141.913 1669.38 181.606C1886.07 217.206 2008.29 383.053 2008.29 383.053" stroke="#8F6988" stroke-miterlimit="10" stroke-linecap="round"/>
<path opacity="0.6098" d="M-32.953 854.534C-35.9955 869.949 403.655 257.637 723.666 535.239C1239.72 982.904 1430.04 147.882 1672.14 189.175C1888.62 226.191 2009.52 393.392 2009.52 393.392" stroke="#8C668B" stroke-miterlimit="10" stroke-linecap="round"/>
<path opacity="0.6341" d="M-37.624 841.58C-40.7894 857.611 409.709 255.483 723.144 538.531C1238.06 1003.46 1433.05 153.851 1674.88 196.744C1891.17 235.175 2010.69 403.73 2010.69 403.73" stroke="#88638D" stroke-miterlimit="10" stroke-linecap="round"/>
<path opacity="0.6585" d="M-42.3263 828.626C-45.6146 845.272 415.609 253.36 722.621 541.793C1236.15 1024.2 1436.06 159.852 1677.64 204.313C1893.72 244.191 2011.92 414.1 2011.92 414.1" stroke="#846190" stroke-miterlimit="10" stroke-linecap="round"/>
<path opacity="0.6829" d="M-46.9972 815.672C-50.4085 832.934 421.418 251.329 722.129 545.055C1234 1045.06 1439.1 165.821 1680.41 211.883C1896.3 253.176 2013.14 424.438 2013.14 424.438" stroke="#815E93" stroke-miterlimit="10" stroke-linecap="round"/>
<path opacity="0.7073" d="M-51.6994 802.718C-55.2336 820.595 427.072 249.298 721.607 548.316C1231.54 1066.07 1442.08 171.821 1683.11 219.452C1898.79 262.16 2014.31 434.777 2014.31 434.777" stroke="#7D5B96" stroke-miterlimit="10" stroke-linecap="round"/>
<path opacity="0.7317" d="M-56.4016 789.764C-60.0587 808.256 432.604 247.329 721.053 551.577C1228.87 1087.21 1445.1 177.79 1685.88 227.021C1901.37 271.144 2015.51 445.146 2015.51 445.146" stroke="#795898" stroke-miterlimit="10" stroke-linecap="round"/>
<path opacity="0.7561" d="M-61.0726 776.81C-64.8526 795.918 438.044 245.36 720.562 554.87C1225.92 1108.47 1448.11 183.79 1688.62 234.59C1903.89 280.129 2016.71 455.484 2016.71 455.484" stroke="#76559B" stroke-miterlimit="10" stroke-linecap="round"/>
<path opacity="0.7805" d="M-65.7747 763.856C-69.6777 783.58 443.36 243.422 720.039 558.132C1222.66 1129.86 1451.12 189.76 1691.38 242.129C1906.47 289.084 2017.94 465.793 2017.94 465.793" stroke="#72529E" stroke-miterlimit="10" stroke-linecap="round"/>
<path opacity="0.8049" d="M-70.4456 750.902C-74.4715 771.241 448.554 241.483 719.517 561.393C1219.19 1151.31 1454.13 195.759 1694.12 249.698C1908.99 298.068 2019.14 476.162 2019.14 476.162" stroke="#6E50A0" stroke-miterlimit="10" stroke-linecap="round"/>
<path opacity="0.8293" d="M-75.1478 737.948C-79.2966 758.902 453.625 239.514 718.995 564.655C1215.41 1172.84 1457.14 201.729 1696.88 257.268C1911.58 307.084 2020.34 486.5 2020.34 486.5" stroke="#6B4DA3" stroke-miterlimit="10" stroke-linecap="round"/>
<path opacity="0.8537" d="M-79.8499 724.994C-84.1217 746.564 458.542 237.544 718.472 567.947C1211.38 1194.44 1460.16 207.729 1699.62 264.837C1914.1 316.068 2021.53 496.839 2021.53 496.839" stroke="#674AA6" stroke-miterlimit="10" stroke-linecap="round"/>
<path opacity="0.878" d="M-84.5208 712.041C-88.9155 734.225 463.428 235.575 717.981 571.209C1207.08 1216.11 1463.2 213.698 1702.35 272.406C1916.65 325.053 2022.73 507.208 2022.73 507.208" stroke="#6347A8" stroke-miterlimit="10" stroke-linecap="round"/>
<path opacity="0.9024" d="M-89.2229 699.086C-93.7405 721.917 468.161 233.544 717.427 574.47C1202.5 1237.83 1466.21 219.698 1705.12 279.975C1919.2 334.037 2023.96 517.546 2023.96 517.546" stroke="#6044AB" stroke-miterlimit="10" stroke-linecap="round"/>
<path opacity="0.9268" d="M-93.8938 686.133C-98.5343 709.579 472.802 231.514 716.936 577.732C1197.67 1259.55 1469.22 225.668 1707.85 287.545C1921.75 343.022 2025.13 527.885 2025.13 527.885" stroke="#5C41AE" stroke-miterlimit="10" stroke-linecap="round"/>
<path opacity="0.9512" d="M-98.5959 673.178C-103.359 697.24 477.32 229.421 716.414 580.993C1192.6 1281.34 1472.23 231.667 1710.62 295.114C1924.3 352.007 2026.36 538.254 2026.36 538.254" stroke="#583FB1" stroke-miterlimit="10" stroke-linecap="round"/>
<path opacity="0.9756" d="M-103.267 660.225C-108.153 684.902 481.807 227.267 715.891 584.285C1187.26 1303.09 1475.25 237.637 1713.36 302.683C1926.85 361.022 2027.56 548.593 2027.56 548.593" stroke="#553CB3" stroke-miterlimit="10" stroke-linecap="round"/>
<path opacity="0.2" d="M-107.969 647.301C-112.978 672.594 486.14 225.114 715.369 587.578C1181.69 1324.91 1478.26 243.637 1716.09 310.253C1929.37 370.007 2028.76 558.932 2028.76 558.932" stroke="#5139B6" stroke-miterlimit="10" stroke-linecap="round"/>
</g>
</g>
</svg>
